<?xml version="1.0" encoding="utf-8"?>
<!-- Generator: Adobe Illustrator 22.0.0, SVG Export Plug-In . SVG Version: 6.00 Build 0)  -->
<svg version="1.1" id="Layer_1" xmlns="http://www.w3.org/2000/svg" xmlns:xlink="http://www.w3.org/1999/xlink" x="0px" y="0px"
	 viewBox="0 0 1627.4 397.9" style="enable-background:new 0 0 1627.4 397.9;" xml:space="preserve">
<style type="text/css">
	.st0{fill:#69EB99;}
	.st1{fill:#236378;}
</style>
<g>
	<g>
		<g>
			<path class="st0" d="M369.4,396.8H26.5c-14.6,0-26.4-11.8-26.4-26.4V27.5c0-14.6,11.8-26.4,26.4-26.4h342.9
				c14.6,0,26.4,11.8,26.4,26.4v342.9C395.8,385,384,396.8,369.4,396.8z"/>
		</g>
		<g>
			<path class="st1" d="M137.3,269.6h-40V160.9H47.6v-35.4h139.2v35.4h-49.5V269.6z"/>
			<path class="st1" d="M246.4,266.8c-9-3.5-16.9-8.5-23.6-15c-6.7-6.5-11.9-14.3-15.8-23.5c-3.9-9.2-5.8-19.4-5.8-30.6
				c0-10.4,1.9-20.2,5.7-29.3c3.8-9.1,9.1-17,15.8-23.8c6.7-6.7,14.8-12,24.2-15.8c9.4-3.8,19.6-5.7,30.7-5.7c10.7,0,20,1.3,27.8,4
				c7.9,2.6,14.6,5.7,20.1,9.3v40.4l-0.6,0.2c-5.9-4.9-12.6-9-19.9-12.3c-7.3-3.3-15.2-5-23.5-5c-5.8,0-11.1,1-15.8,2.9
				c-4.8,1.9-8.8,4.6-12.3,7.9c-3.4,3.4-6.1,7.4-8,12c-1.9,4.6-2.9,9.6-2.9,14.9c0,5.9,1,11.3,3,15.9c2,4.7,4.8,8.7,8.3,12
				c3.6,3.3,7.8,5.8,12.6,7.6c4.8,1.8,10,2.7,15.5,2.7c9,0,17.3-1.5,25-4.6c7.7-3,14.6-6.9,20.8-11.5l0.6,0.4l-5,40.2
				c-5.9,3.4-12.7,6.3-20.4,8.5c-7.7,2.2-16.8,3.4-27.5,3.4C265.1,272,255.4,270.3,246.4,266.8z"/>
		</g>
	</g>
	<g>
		<path class="st1" d="M665.2,103.7h-74.5V270h-35.7V103.7h-74.5v-32h184.8V103.7z M758.7,270v-26.1c-7.9,10.2-15.6,17.6-23.5,22.1
			c-7.9,4.5-16.7,6.8-26.4,6.8c-14.7,0-26.9-5.1-36-15c-8.8-9.6-13.3-23.2-13.3-40.5v-90.7H693v85.9c0,9.9,2.3,17,7.4,22.4
			c4.8,5.4,11.6,8.2,20.4,8.2c8.5,0,14.2-1.4,18.1-4.5c6.8-4.3,13-9.1,19.6-15.6v-96.4h33.4V270H758.7z M996.5,130.6h-2
			c-9.6-8.8-19.6-15.6-30.3-21.3c-8.5-5.4-19.6-7.9-32.6-7.9c-18.7,0-34.6,6.8-47.6,20.1c-13,13.3-19.6,29.5-19.6,48.5
			c0,20.4,6.5,37.1,19.3,50.2c12.8,13.3,28.6,20.1,47.3,20.1c22.1,0,43.9-8.8,64.9-26.1l0.6,0.6l-0.8,35.4
			c-21,15.6-43.6,23.2-68.3,23.2c-28.6,0-52.4-9.6-71.1-28.9c-19-19-28.3-43.4-28.3-73.7c0-29.2,9.9-53.6,29.8-73.1
			s44.5-29.5,73.4-29.5c12.5,0,24.4,2,35.4,6c10.8,4,21,9.9,30,17.6V130.6z M1122.6,270v-26.1c-7.9,10.2-15.6,17.6-23.5,22.1
			c-7.9,4.5-16.7,6.8-26.4,6.8c-14.7,0-26.9-5.1-36-15c-8.8-9.6-13.3-23.2-13.3-40.5v-90.7h33.4v85.9c0,9.9,2.3,17,7.4,22.4
			c4.8,5.4,11.6,8.2,20.4,8.2c8.5,0,14.2-1.4,18.1-4.5c6.8-4.3,13-9.1,19.6-15.6v-96.4h33.4V270H1122.6z M1209.9,252.2
			c-14.2-14.5-21.3-32.3-21.3-53.6c0-21.3,7.4-39.1,21.8-53.6c14.5-15,32.6-22.4,54.7-22.4c22.1,0,40.5,7.4,54.7,21.8
			c14.2,14.2,21.3,32,21.3,53.3c0,21-7.4,39.1-21.8,53.8c-14.7,15-32.9,22.4-54.7,22.4C1242.5,274,1224.1,266.6,1209.9,252.2z
			 M1295.5,165.2c-7.9-8.8-17.9-13-30.3-13c-12.5,0-23,4.5-30.9,13.3c-8.2,8.8-12.2,19.8-12.2,33.2c0,13.3,4,24.1,11.9,32.9
			c7.9,8.8,18.1,13.3,30.6,13.3c12.5,0,22.7-4.5,30.9-13.6c7.9-8.8,12.2-20.4,12.2-33.4C1307.7,185,1303.7,174.2,1295.5,165.2z
			 M1461.6,263.5c-9.9,6.2-23.2,9.6-37.4,9.6c-14.7,0-26.4-4.5-34.3-13.3c-8.2-8.8-12.2-21.3-12.2-38v-67.7h-23.2v-27.5h23.2V95.7
			l32.9-10.2v41.1h50.2v27.5h-50.2v65.8c0,8.5,1.7,13.9,5.7,17.9c3.7,4,9.4,6,17,6c8.8,0,15.6-2.3,26.9-9.6l1.4,0.3V263.5z
			 M1594.4,270.4l-4.3-22.4c-7.9,8.9-15.7,15.3-23.4,19.3c-7.7,4-16.4,6-26.2,6c-17.4,0-32-6.7-43.9-20.1
			c-11.9-13.4-17.9-30.1-17.9-50.2c0-22.9,7.6-41.6,22.8-56.1c15.2-14.5,34.2-21.8,57.1-21.8c6,0,12.1,0.6,18.3,1.7
			c6.1,1.1,12.6,2.8,19.4,5.1l22.1-4.8h3.1v99.5l5.7,43.9H1594.4z M1522.7,232c7,7.8,16.2,11.8,27.5,11.8c7,0,13.4-1.2,19.3-3.7
			c5.9-2.5,12.1-6.4,18.7-11.9v-70c-4.7-1.5-9.4-2.6-13.9-3.4c-4.5-0.8-9.4-1.1-14.5-1.1c-13.8,0-25.2,4.4-34.2,13.2
			c-9,8.8-13.5,20.1-13.5,33.9C1512.2,213.8,1515.7,224.2,1522.7,232z"/>
	</g>
</g>
</svg>
